<?xml version="1.0" encoding="utf-8"?>
<!-- Generator: Adobe Illustrator 18.1.1, SVG Export Plug-In . SVG Version: 6.00 Build 0)  -->
<svg version="1.1" id="Layer_1" xmlns="http://www.w3.org/2000/svg" xmlns:xlink="http://www.w3.org/1999/xlink" x="0px" y="0px"
	 viewBox="0 0 649.9 374.7" enable-background="new 0 0 649.9 374.7" xml:space="preserve">
<g>
	<g id="calendar_2_">
		<g>
			<path fill="#FFFFFF" d="M504.6,285.1h-79.9v79.9h79.9V285.1z M364.9,5.6H285v79.9h79.9V5.6z M504.6,145.3h-79.9v79.9h79.9V145.3z
				 M504.6,5.6h-79.9v79.9h79.9V5.6z M644.4,5.6h-79.9v79.9h79.9V5.6z M644.4,145.3h-79.9v79.9h79.9V145.3z M364.9,145.3H285v79.9
				h79.9V145.3z M225.1,5.6h-79.9v79.9h79.9V5.6z M85.4,145.3H5.5v79.9h79.9V145.3z M225.1,285.1h-79.9v79.9h79.9V285.1z
				 M85.4,285.1H5.5v79.9h79.9V285.1z M225.1,145.3h-79.9v79.9h79.9V145.3z M364.9,285.1H285v79.9h79.9V285.1z"/>
		</g>
	</g>
</g>
</svg>
